<svg xmlns="http://www.w3.org/2000/svg" width="1024" height="1024" aria-hidden="true" class="iconify iconify--twemoji" preserveAspectRatio="xMidYMid" viewBox="0 0 46.08 46.08"><path d="M 8.6408894,8.6406152 C 7.0503778,8.6401298 5.7605927,9.9290494 5.7600106,11.519561 c -4.371e-4,1.591232 1.2896466,2.881277 2.8808788,2.880791 H 37.4392 c 1.591233,4.86e-4 2.881317,-1.289559 2.88088,-2.880791 C 40.319497,9.9290493 39.029712,8.6401297 37.4392,8.6406152 Z m 0,11.5195608 c -1.5904769,-4.85e-4 -2.8802476,1.28838 -2.8808788,2.878857 -4.857e-4,1.591267 1.2896122,2.881365 2.8808788,2.880879 H 37.4392 c 1.591267,4.86e-4 2.881365,-1.289612 2.88088,-2.880879 -6.32e-4,-1.590477 -1.290402,-2.879342 -2.88088,-2.878857 z m 0,11.519472 c -1.5912666,-4.86e-4 -2.8813645,1.289612 -2.8808788,2.880879 5.82e-4,1.590512 1.2903671,2.879431 2.8808788,2.878946 H 37.4392 c 1.590512,4.85e-4 2.880297,-1.288434 2.88088,-2.878946 4.85e-4,-1.591267 -1.289613,-2.881365 -2.88088,-2.880879 z" style="color:#000;fill:#050505;stroke-linecap:round;stroke-linejoin:round;stroke-miterlimit:128;-inkscape-stroke:none"/></svg>