<svg xmlns="http://www.w3.org/2000/svg" width="1024" height="1024" aria-hidden="true" class="iconify iconify--twemoji" preserveAspectRatio="xMidYMid" viewBox="0 0 46.08 46.08"><path d="M 19.812744 0.36061523 A 5.7605762 5.7605762 0 0 0 18.644502 0.46485352 C 7.8725812 2.5586966 0.025830264 12.05384 0 23.027344 A 5.7605762 5.7605762 0 0 0 0 23.039033 C 7.324299e-07 35.695424 10.382644 46.080087 23.039033 46.080088 A 5.7605762 5.7605762 0 0 0 23.052744 46.080088 C 34.026249 46.054258 43.521391 38.207507 45.615234 27.435586 A 5.7605762 5.7605762 0 0 0 35.484346 22.714805 C 33.847085 24.738513 31.395794 25.910104 28.792969 25.917979 C 23.959851 25.913579 20.166523 22.120238 20.162109 17.287119 C 20.170009 14.684294 21.341487 12.233003 23.365195 10.595742 A 5.7605762 5.7605762 0 0 0 19.812744 0.36061523 z M 19.742783 6.1181543 A 14.400001 14.400001 0 0 0 14.4 17.28 A 14.400001 14.400001 0 0 0 28.8 31.68 A 14.400001 14.400001 0 0 0 39.961846 26.337217 A 17.280001 17.280001 0 0 1 23.04 40.32 A 17.280001 17.280001 0 0 1 5.76 23.04 A 17.280001 17.280001 0 0 1 19.742783 6.1181543 z" style="color:#000;fill:#fff;stroke-linecap:round;stroke-linejoin:round;stroke-miterlimit:128;-inkscape-stroke:none;paint-order:stroke fill markers;stroke:none;fill-opacity:1"/></svg>