<svg xmlns="http://www.w3.org/2000/svg" width="1024" height="1024" aria-hidden="true" class="iconify iconify--twemoji" preserveAspectRatio="xMidYMid" viewBox="0 0 46.08 46.08"><path d="M 23.04 0 A 2.8800001 2.8800001 0 0 0 20.16 2.88 L 20.16 5.76 A 2.8800001 2.8800001 0 0 0 23.04 8.64 A 2.8800001 2.8800001 0 0 0 25.92 5.76 L 25.92 2.88 A 2.8800001 2.8800001 0 0 0 23.04 0 z M 8.3342285 5.9401758 A 2.8800001 2.8800001 0 0 0 6.7482422 6.7482422 A 2.8800001 2.8800001 0 0 0 6.7482422 10.821182 L 8.7847559 12.857695 A 2.8800001 2.8800001 0 0 0 12.857695 12.857695 A 2.8800001 2.8800001 0 0 0 12.857695 8.7847559 L 10.821182 6.7482422 A 2.8800001 2.8800001 0 0 0 8.3342285 5.9401758 z M 36.844717 5.9401758 A 2.8800001 2.8800001 0 0 0 35.258818 6.7482422 L 33.222305 8.7847559 A 2.8800001 2.8800001 0 0 0 33.222305 12.857695 A 2.8800001 2.8800001 0 0 0 37.295244 12.857695 L 39.331758 10.821182 A 2.8800001 2.8800001 0 0 0 39.331758 6.7482422 A 2.8800001 2.8800001 0 0 0 36.844717 5.9401758 z M 23.04 11.52 A 11.52 11.52 0 0 0 11.52 23.04 A 11.52 11.52 0 0 0 23.04 34.56 A 11.52 11.52 0 0 0 34.56 23.04 A 11.52 11.52 0 0 0 23.04 11.52 z M 23.04 17.28 A 5.76 5.76 0 0 1 28.8 23.04 A 5.76 5.76 0 0 1 23.04 28.8 A 5.76 5.76 0 0 1 17.28 23.04 A 5.76 5.76 0 0 1 23.04 17.28 z M 2.88 20.16 A 2.8800001 2.8800001 0 0 0 0 23.04 A 2.8800001 2.8800001 0 0 0 2.88 25.92 L 5.76 25.92 A 2.8800001 2.8800001 0 0 0 8.64 23.04 A 2.8800001 2.8800001 0 0 0 5.76 20.16 L 2.88 20.16 z M 40.32 20.16 A 2.8800001 2.8800001 0 0 0 37.44 23.04 A 2.8800001 2.8800001 0 0 0 40.32 25.92 L 43.2 25.92 A 2.8800001 2.8800001 0 0 0 46.08 23.04 A 2.8800001 2.8800001 0 0 0 43.2 20.16 L 40.32 20.16 z M 10.370654 32.414238 A 2.8800001 2.8800001 0 0 0 8.7847559 33.222305 L 6.7482422 35.258818 A 2.8800001 2.8800001 0 0 0 6.7482422 39.331758 A 2.8800001 2.8800001 0 0 0 10.821182 39.331758 L 12.857695 37.295244 A 2.8800001 2.8800001 0 0 0 12.857695 33.222305 A 2.8800001 2.8800001 0 0 0 10.370654 32.414238 z M 34.808291 32.414238 A 2.8800001 2.8800001 0 0 0 33.222305 33.222305 A 2.8800001 2.8800001 0 0 0 33.222305 37.295244 L 35.258818 39.331758 A 2.8800001 2.8800001 0 0 0 39.331758 39.331758 A 2.8800001 2.8800001 0 0 0 39.331758 35.258818 L 37.295244 33.222305 A 2.8800001 2.8800001 0 0 0 34.808291 32.414238 z M 23.04 37.44 A 2.8800001 2.8800001 0 0 0 20.16 40.32 L 20.16 43.2 A 2.8800001 2.8800001 0 0 0 23.04 46.08 A 2.8800001 2.8800001 0 0 0 25.92 43.2 L 25.92 40.32 A 2.8800001 2.8800001 0 0 0 23.04 37.44 z" style="fill:#fff;fill-opacity:1;stroke:none;stroke-width:5.76;stroke-linecap:round;stroke-linejoin:round;stroke-miterlimit:128"/></svg>