<svg xmlns="http://www.w3.org/2000/svg" width="768" height="1024" aria-hidden="true" class="iconify iconify--twemoji" preserveAspectRatio="xMidYMid" viewBox="0 0 34.56 46.08"><path d="m 0.0354404,28.349385 a 2.8800001,2.8800001 0 0 1 0.8077148,-1.585723 2.8800001,2.8800001 0 0 1 4.0723247,0 l 9.4843651,9.485947 V 2.880879 A 2.8800001,2.8800001 0 0 1 17.278702,0 2.8800001,2.8800001 0 0 1 20.159581,2.880879 v 33.367148 l 9.484365,-9.484365 a 2.8800001,2.8800001 0 0 1 4.072325,0 2.8800001,2.8800001 0 0 1 0,4.072236 l -14.40044,14.40044 a 2.8802881,2.8802881 0 0 1 -4.072236,0 L 0.8431552,30.835898 A 2.8800001,2.8800001 0 0 1 0.0354404,28.349385 Z" style="color:#000;fill:#050505;stroke-linecap:round;stroke-linejoin:round;stroke-miterlimit:128;-inkscape-stroke:none"/></svg>