<svg xmlns="http://www.w3.org/2000/svg" width="1024" height="768" aria-hidden="true" class="iconify iconify--twemoji" preserveAspectRatio="xMidYMid" viewBox="0 0 46.08 34.56"><path d="m 17.730017,0.0354404 a 2.8800001,2.8800001 0 0 1 1.585723,0.8077148 2.8800001,2.8800001 0 0 1 0,4.0723247 L 9.8297928,14.399845 H 43.198523 a 2.8800001,2.8800001 0 0 1 2.880879,2.878857 2.8800001,2.8800001 0 0 1 -2.880879,2.880879 H 9.8313748 l 9.4843652,9.484365 a 2.8800001,2.8800001 0 0 1 0,4.072325 2.8800001,2.8800001 0 0 1 -4.072236,0 L 0.84306376,19.315831 a 2.8802881,2.8802881 0 0 1 0,-4.072236 L 15.243504,0.8431552 a 2.8800001,2.8800001 0 0 1 2.486513,-0.8077148 z" style="color:#000;fill:#050505;stroke-linecap:round;stroke-linejoin:round;stroke-miterlimit:128;-inkscape-stroke:none"/></svg>