<svg xmlns="http://www.w3.org/2000/svg" width="1024" height="768" aria-hidden="true" class="iconify iconify--twemoji" preserveAspectRatio="xMidYMid" viewBox="0 0 46.08 34.56"><path d="m 28.349385,0.0354404 a 2.8800001,2.8800001 0 0 0 -1.585723,0.8077148 2.8800001,2.8800001 0 0 0 0,4.0723247 l 9.485947,9.4843651 H 2.8808789 A 2.8800001,2.8800001 0 0 0 0,17.278702 2.8800001,2.8800001 0 0 0 2.8808789,20.159581 H 36.248027 l -9.484365,9.484365 a 2.8800001,2.8800001 0 0 0 0,4.072325 2.8800001,2.8800001 0 0 0 4.072236,0 l 14.40044,-14.40044 a 2.8802881,2.8802881 0 0 0 0,-4.072236 L 30.835898,0.8431552 A 2.8800001,2.8800001 0 0 0 28.349385,0.0354404 Z" style="color:#000;fill:#050505;stroke-linecap:round;stroke-linejoin:round;stroke-miterlimit:128;-inkscape-stroke:none"/></svg>