<svg xmlns="http://www.w3.org/2000/svg" width="1101.844" height="1054.061" aria-hidden="true" class="iconify iconify--twemoji" preserveAspectRatio="xMidYMid" viewBox="0 0 49.58298 47.432747"><path d="M 24.793418 0 A 2.8802881 2.8802881 0 0 0 22.055098 1.9901953 L 17.527764 15.919893 L 2.8813184 15.919893 A 2.8802881 2.8802881 0 0 0 1.1879297 21.13084 L 13.03752 29.740254 L 8.5122071 43.669951 A 2.8802881 2.8802881 0 0 0 12.943828 46.888682 L 24.793418 38.281201 L 36.643008 46.888682 A 2.8802881 2.8802881 0 0 0 41.074629 43.669951 L 36.549317 29.740254 L 48.398907 21.13084 A 2.8802881 2.8802881 0 0 0 46.705518 15.919893 L 32.059072 15.919893 L 27.531738 1.9901953 A 2.8802881 2.8802881 0 0 0 24.793418 0 z M 24.792979 12.203086 L 27.548789 20.685586 A 1.4401441 1.4401441 0 0 0 27.54958 20.686992 L 27.875039 21.688594 L 37.833574 21.688506 L 30.623028 26.925821 A 1.4401441 1.4401441 0 0 0 30.607998 26.942432 L 29.770488 27.550987 L 32.844639 37.012237 L 25.640596 31.777383 A 1.4401441 1.4401441 0 0 0 25.637783 31.776153 L 24.788496 31.159072 L 16.732002 37.012588 L 19.486318 28.535186 A 1.4401441 1.4401441 0 0 0 19.516641 28.413545 L 19.801582 27.536485 L 18.974971 26.935928 A 1.4401441 1.4401441 0 0 0 18.96293 26.925821 L 11.740254 21.679717 L 20.668008 21.679717 L 21.713906 21.679717 L 22.036729 20.686289 A 1.4401441 1.4401441 0 0 0 22.03708 20.685586 L 24.792979 12.203086 z M 37.827158 21.679717 L 37.845703 21.679717 L 37.836475 21.686397 L 37.827158 21.679717 z M 32.854483 37.012588 L 32.857383 37.021465 L 32.852725 37.018037 L 32.854483 37.012588 z M 16.730859 37.016016 L 16.738682 37.016016 L 16.728486 37.023399 L 16.730859 37.016016 z" style="color:#000;fill:#000;stroke-linecap:round;stroke-linejoin:round;stroke-miterlimit:128;-inkscape-stroke:none"/></svg>