<?xml version="1.0" encoding="UTF-8" standalone="no"?>
<!-- Uploaded to: SVG Repo, www.svgrepo.com, Generator: SVG Repo Mixer Tools -->

<svg
   width="1101.844"
   height="1054.061"
   viewBox="0 0 49.58298 47.432747"
   aria-hidden="true"
   role="img"
   class="iconify iconify--twemoji"
   preserveAspectRatio="xMidYMid"
   version="1.1"
   id="svg3"
   sodipodi:docname="star.svg"
   inkscape:version="1.3 (0e150ed6c4, 2023-07-21)"
   xmlns:inkscape="http://www.inkscape.org/namespaces/inkscape"
   xmlns:sodipodi="http://sodipodi.sourceforge.net/DTD/sodipodi-0.dtd"
   xmlns="http://www.w3.org/2000/svg"
   xmlns:svg="http://www.w3.org/2000/svg">
  <defs
     id="defs3" />
  <sodipodi:namedview
     id="namedview3"
     pagecolor="#505050"
     bordercolor="#eeeeee"
     borderopacity="1"
     inkscape:showpageshadow="0"
     inkscape:pageopacity="0"
     inkscape:pagecheckerboard="0"
     inkscape:deskcolor="#505050"
     inkscape:zoom="0.53625"
     inkscape:cx="526.80653"
     inkscape:cy="574.35897"
     inkscape:window-width="1366"
     inkscape:window-height="705"
     inkscape:window-x="-8"
     inkscape:window-y="-8"
     inkscape:window-maximized="1"
     inkscape:current-layer="svg3" />
  <path
     id="path5"
     style="color:#000000;fill:#000000;stroke-linecap:round;stroke-linejoin:round;stroke-miterlimit:128;-inkscape-stroke:none"
     d="m 24.793411,0 a 2.8802881,2.8802881 0 0 0 -2.73832,1.9901953 L 17.527757,15.919893 H 2.8813119 A 2.8802881,2.8802881 0 0 0 1.1879232,21.13084 L 13.037513,29.740254 8.5122006,43.669951 a 2.8802881,2.8802881 0 0 0 4.4316204,3.218731 l 11.84959,-8.607481 11.84959,8.607481 a 2.8802881,2.8802881 0 0 0 4.431621,-3.218731 L 36.549309,29.740254 48.398899,21.13084 A 2.8802881,2.8802881 0 0 0 46.705511,15.919893 H 32.059065 L 27.531731,1.9901953 A 2.8802881,2.8802881 0 0 0 24.793411,0 Z" />
</svg>
